<svg xmlns="http://www.w3.org/2000/svg" viewBox="0 0 511 512"><path d="M290 511h-82c-13.7 0-24.8-11.1-24.8-24.8v-185h-47.8c-13.7 0-24.8-11.1-24.8-24.8v-79.2c0-13.7 11.1-24.8 24.8-24.8h47.8v-39.7c0-39.3 12.4-72.8 35.7-96.8C242.4 11.7 275.2-1 313.8-1l62.5.1c13.7 0 24.8 11.2 24.8 24.8v73.6c0 13.7-11.1 24.8-24.8 24.8h-42.1c-12.8 0-16.1 2.6-16.8 3.4-1.2 1.3-2.5 5-2.5 15.2v31.4h58.3c4.4 0 8.6 1.1 12.3 3.1 7.9 4.4 12.8 12.7 12.8 21.7v79.2c0 13.7-11.1 24.8-24.8 24.8H315V486c-.2 13.9-11.3 25-25 25zm-76.8-30h71.6V287.8c0-9.1 7.4-16.6 16.6-16.6h66.7v-68.9h-66.8c-9.1 0-16.6-7.4-16.6-16.6V141c0-11.7 1.2-25.1 10-35.1 10.7-12.1 27.6-13.5 39.3-13.5h36.9V29.1l-57.1-.1c-62 0-100.6 39.7-100.6 103.6v53.1c0 9.1-7.4 16.6-16.6 16.6h-56.1v68.9h56.1c9.1 0 16.6 7.4 16.6 16.6V481zM376.3 29.1z" fill="#425fc6"/></svg>