<svg id="Layer_1" data-name="Layer 1" xmlns="http://www.w3.org/2000/svg" viewBox="0 0 512 512"><defs><style>.cls-1{fill:#425fc6;}</style></defs><title>functional</title><path class="cls-1" d="M497,316.93H470.45a103.47,103.47,0,0,0-8.27-14.26L475,280.5A15,15,0,0,0,469.48,260l-52-30A15,15,0,0,0,397,235.5l-12.6,21.82a89.59,89.59,0,0,0-16.86,0l-25.39-46.14a104,104,0,0,0,8.27-14.25H376a15,15,0,0,0,15-15v-60a15,15,0,0,0-15-15H350.45a103.47,103.47,0,0,0-8.27-14.26L355,70.5A15,15,0,0,0,349.48,50l-52-30A15,15,0,0,0,277,25.5l-12.6,21.82a89.59,89.59,0,0,0-16.86,0L235,25.5A15,15,0,0,0,214.48,20l-52,30A15,15,0,0,0,157,70.5l12.79,22.17a103.47,103.47,0,0,0-8.27,14.26H136a15,15,0,0,0-15,15v60a15,15,0,0,0,15,15h25.55a104,104,0,0,0,8.27,14.25l-25.39,46.14a89.59,89.59,0,0,0-16.86,0L115,235.5A15,15,0,0,0,94.48,230l-52,30A15,15,0,0,0,37,280.5l12.79,22.17a103.47,103.47,0,0,0-8.27,14.26H15a15,15,0,0,0-15,15v60a15,15,0,0,0,15,15H41.55a104,104,0,0,0,8.27,14.25L37,443.35a15,15,0,0,0,5.49,20.49l52,30A15,15,0,0,0,115,488.35l12.6-21.82a89.59,89.59,0,0,0,16.86,0L157,488.35a15,15,0,0,0,20.49,5.49l52-30A15,15,0,0,0,235,443.35l-12.8-22.17a105.15,105.15,0,0,0,8.28-14.45h51.1a106.13,106.13,0,0,0,8.27,14.45L277,443.35a15,15,0,0,0,5.49,20.49l52,30A15,15,0,0,0,355,488.35l12.6-21.82a89.59,89.59,0,0,0,16.86,0L397,488.35a15,15,0,0,0,20.49,5.49l52-30A15,15,0,0,0,475,443.35l-12.8-22.17a103,103,0,0,0,8.28-14.25H497a15,15,0,0,0,15-15v-60A15,15,0,0,0,497,316.93Zm-346-150v-30h20.53a15,15,0,0,0,14.13-10,74.25,74.25,0,0,1,13.58-23.38,15,15,0,0,0,1.58-17.24L190.51,68.49l26-15,10.15,17.59a15,15,0,0,0,15.72,7.25,67,67,0,0,1,27.28,0,15,15,0,0,0,15.72-7.25l10.15-17.59,26,15L311.18,86.34a15,15,0,0,0,1.58,17.24A74.25,74.25,0,0,1,326.34,127a15,15,0,0,0,14.13,10H361v30H340.47a15,15,0,0,0-14.13,10,74.44,74.44,0,0,1-13.58,23.38,15,15,0,0,0-1.58,17.24l10.31,17.85-26,15-10.15-17.59a15,15,0,0,0-15.72-7.25,67,67,0,0,1-27.28,0,15,15,0,0,0-15.72,7.25l-10.15,17.59-26-15,10.31-17.85a15,15,0,0,0-1.58-17.24,74.25,74.25,0,0,1-13.58-23.38,15,15,0,0,0-14.13-10ZM289.82,302.67a103.47,103.47,0,0,0-8.27,14.26h-51.1a103.47,103.47,0,0,0-8.27-14.26l25.39-46.14a89.59,89.59,0,0,0,16.86,0ZM241,376.93H220.47a15,15,0,0,0-14.13,10,74.44,74.44,0,0,1-13.58,23.38,15,15,0,0,0-1.58,17.24l10.31,17.85-26,15-10.15-17.59a15,15,0,0,0-15.72-7.25,67,67,0,0,1-27.28,0,15,15,0,0,0-15.72,7.25L96.49,460.36l-26-15,10.31-17.85a15,15,0,0,0-1.58-17.24,74.25,74.25,0,0,1-13.58-23.38,15,15,0,0,0-14.13-10H30v-30H51.53a15,15,0,0,0,14.13-10,74.25,74.25,0,0,1,13.58-23.38,15,15,0,0,0,1.58-17.24L70.51,278.49l26-15,10.15,17.59a15,15,0,0,0,15.72,7.25,67,67,0,0,1,27.28,0,15,15,0,0,0,15.72-7.25l11.08-19.2,26,15-11.24,19.46a15,15,0,0,0,1.58,17.24A74.25,74.25,0,0,1,206.34,337a14.83,14.83,0,0,0,14.13,9.76H241Zm241,0H460.47a15,15,0,0,0-14.13,10,74.44,74.44,0,0,1-13.58,23.38,15,15,0,0,0-1.58,17.24l10.31,17.85-26,15-10.15-17.59a15,15,0,0,0-15.72-7.25,67,67,0,0,1-27.28,0,15,15,0,0,0-15.72,7.25l-10.15,17.59-26-15,10.31-17.85a15,15,0,0,0-1.58-17.24,74.25,74.25,0,0,1-13.58-23.38,15,15,0,0,0-14.13-10H271v-30.2h20.53A14.82,14.82,0,0,0,305.66,337a74.25,74.25,0,0,1,13.58-23.38,15,15,0,0,0,1.58-17.24l-11.24-19.46,26-15,11.08,19.2a15,15,0,0,0,15.72,7.25,67,67,0,0,1,27.28,0,15,15,0,0,0,15.72-7.25l10.15-17.59,26,15-10.31,17.85a15,15,0,0,0,1.59,17.24A74.42,74.42,0,0,1,446.34,337a15,15,0,0,0,14.13,10H482Z"/><path class="cls-1" d="M376,316.93a45,45,0,1,0,45,45A45,45,0,0,0,376,316.93Zm0,60a15,15,0,1,1,15-15A15,15,0,0,1,376,376.93Z"/><path class="cls-1" d="M256,196.93a45,45,0,1,0-45-45A45.05,45.05,0,0,0,256,196.93Zm0-60a15,15,0,1,1-15,15A15,15,0,0,1,256,136.93Z"/><path class="cls-1" d="M136,316.93a45,45,0,1,0,45,45A45,45,0,0,0,136,316.93Zm0,60a15,15,0,1,1,15-15A15,15,0,0,1,136,376.93Z"/></svg>