<svg id="Layer_1" data-name="Layer 1" xmlns="http://www.w3.org/2000/svg" viewBox="0 0 512 512"><defs><style>.cls-1{fill:#425fc6}</style></defs><path class="cls-1" d="M497 316.93h-26.55a103.47 103.47 0 00-8.27-14.26L475 280.5a15 15 0 00-5.52-20.5l-52-30a15 15 0 00-20.48 5.5l-12.6 21.82a89.59 89.59 0 00-16.86 0l-25.39-46.14a104 104 0 008.27-14.25H376a15 15 0 0015-15v-60a15 15 0 00-15-15h-25.55a103.47 103.47 0 00-8.27-14.26L355 70.5a15 15 0 00-5.52-20.5l-52-30A15 15 0 00277 25.5l-12.6 21.82a89.59 89.59 0 00-16.86 0L235 25.5a15 15 0 00-20.52-5.5l-52 30A15 15 0 00157 70.5l12.79 22.17a103.47 103.47 0 00-8.27 14.26H136a15 15 0 00-15 15v60a15 15 0 0015 15h25.55a104 104 0 008.27 14.25l-25.39 46.14a89.59 89.59 0 00-16.86 0L115 235.5a15 15 0 00-20.52-5.5l-52 30A15 15 0 0037 280.5l12.79 22.17a103.47 103.47 0 00-8.27 14.26H15a15 15 0 00-15 15v60a15 15 0 0015 15h26.55a104 104 0 008.27 14.25L37 443.35a15 15 0 005.49 20.49l52 30a15 15 0 0020.51-5.49l12.6-21.82a89.59 89.59 0 0016.86 0L157 488.35a15 15 0 0020.49 5.49l52-30a15 15 0 005.51-20.49l-12.8-22.17a105.15 105.15 0 008.28-14.45h51.1a106.13 106.13 0 008.27 14.45L277 443.35a15 15 0 005.49 20.49l52 30a15 15 0 0020.51-5.49l12.6-21.82a89.59 89.59 0 0016.86 0L397 488.35a15 15 0 0020.49 5.49l52-30a15 15 0 005.51-20.49l-12.8-22.17a103 103 0 008.28-14.25H497a15 15 0 0015-15v-60a15 15 0 00-15-15zm-346-150v-30h20.53a15 15 0 0014.13-10 74.25 74.25 0 0113.58-23.38 15 15 0 001.58-17.24l-10.31-17.82 26-15 10.15 17.59a15 15 0 0015.72 7.25 67 67 0 0127.28 0 15 15 0 0015.72-7.25l10.15-17.59 26 15-10.35 17.85a15 15 0 001.58 17.24A74.25 74.25 0 01326.34 127a15 15 0 0014.13 10H361v30h-20.53a15 15 0 00-14.13 10 74.44 74.44 0 01-13.58 23.38 15 15 0 00-1.58 17.24l10.31 17.85-26 15-10.15-17.59a15 15 0 00-15.72-7.25 67 67 0 01-27.28 0 15 15 0 00-15.72 7.25l-10.15 17.59-26-15 10.31-17.85a15 15 0 00-1.58-17.24A74.25 74.25 0 01185.62 177a15 15 0 00-14.13-10zm138.82 135.74a103.47 103.47 0 00-8.27 14.26h-51.1a103.47 103.47 0 00-8.27-14.26l25.39-46.14a89.59 89.59 0 0016.86 0zM241 376.93h-20.53a15 15 0 00-14.13 10 74.44 74.44 0 01-13.58 23.38 15 15 0 00-1.58 17.24l10.31 17.85-26 15-10.15-17.59a15 15 0 00-15.72-7.25 67 67 0 01-27.28 0 15 15 0 00-15.72 7.25l-10.13 17.55-26-15 10.31-17.85a15 15 0 00-1.58-17.24 74.25 74.25 0 01-13.58-23.38 15 15 0 00-14.13-10H30v-30h21.53a15 15 0 0014.13-10 74.25 74.25 0 0113.58-23.38 15 15 0 001.58-17.24l-10.31-17.78 26-15 10.15 17.59a15 15 0 0015.72 7.25 67 67 0 0127.28 0 15 15 0 0015.72-7.25l11.08-19.2 26 15-11.24 19.46a15 15 0 001.58 17.24A74.25 74.25 0 01206.34 337a14.83 14.83 0 0014.13 9.76H241zm241 0h-21.53a15 15 0 00-14.13 10 74.44 74.44 0 01-13.58 23.38 15 15 0 00-1.58 17.24l10.31 17.85-26 15-10.15-17.59a15 15 0 00-15.72-7.25 67 67 0 01-27.28 0 15 15 0 00-15.72 7.25l-10.15 17.59-26-15 10.31-17.85a15 15 0 00-1.58-17.24 74.25 74.25 0 01-13.58-23.38 15 15 0 00-14.13-10H271v-30.2h20.53a14.82 14.82 0 0014.13-9.73 74.25 74.25 0 0113.58-23.38 15 15 0 001.58-17.24l-11.24-19.46 26-15 11.08 19.2a15 15 0 0015.72 7.25 67 67 0 0127.28 0 15 15 0 0015.72-7.25l10.15-17.59 26 15-10.31 17.85a15 15 0 001.59 17.24A74.42 74.42 0 01446.34 337a15 15 0 0014.13 10H482z"/><path class="cls-1" d="M376 316.93a45 45 0 1045 45 45 45 0 00-45-45zm0 60a15 15 0 1115-15 15 15 0 01-15 15zm-120-180a45 45 0 10-45-45 45.05 45.05 0 0045 45zm0-60a15 15 0 11-15 15 15 15 0 0115-15zm-120 180a45 45 0 1045 45 45 45 0 00-45-45zm0 60a15 15 0 1115-15 15 15 0 01-15 15z"/></svg>