<svg version="1.1" id="HomCom" xmlns="http://www.w3.org/2000/svg" x="0" y="0" viewBox="0 0 36 45.4" xml:space="preserve"><style>.st0{fill:#2a9cb7}</style><g id="HomeCom"><g id="Logo_1_"><path id="Left_stem_1_" class="st0" d="M10.9 0H1.6C.7 0 0 .9 0 1.9V5c0 8 3.7 14.9 9.2 18.5v18H3.3V21.4c0-1.1-.7-1.9-1.6-1.9s-1.6.9-1.6 1.9v22.1c0 1.1.7 1.9 1.6 1.9h9.2c.9 0 1.6-.9 1.6-1.9V21.1h-.1.1V2c0-1.1-.7-2-1.6-2zM3.3 5V3.9h5.9v15c.1.1.2.1.2.2 0-.1-.1-.1-.2-.2C5.6 15.7 3.3 10.7 3.3 5z"/><linearGradient id="Left_Inner_shadow_2_" gradientUnits="userSpaceOnUse" x1="43.288" y1="-138.74" x2="43.288" y2="-151.199" gradientTransform="rotate(180 27.094 -65)"><stop offset="0" stop-color="#fff"/><stop offset=".999" stop-color="#272525"/></linearGradient><path id="Left_Inner_shadow_1_" d="M9.2 18.9c.1.1.2.1.2.2l1.2.9c.1.1.2.1.3.2.5.3 1 .6 1.6.9h.1V9H9.2v9.9z" opacity=".1" fill="url(#Left_Inner_shadow_2_)"/><path id="Right_stem_3_" class="st0" d="M36 5V1.9c0-1-.7-1.9-1.6-1.9h-9.2c-.9 0-1.6.9-1.6 1.9v41.4c0 1.1.7 1.9 1.6 1.9h9.2c.9 0 1.6-.9 1.6-1.9V21.7c0-1.1-.7-1.9-1.6-1.9-.9 0-1.6.9-1.6 1.9v19.8h-5.9v-18C32.3 19.8 36 12.9 36 5zm-9.1 13.9v-15h5.9V5c-.1 5.7-2.4 10.7-5.9 13.9z"/><linearGradient id="Right_stem_1_" gradientUnits="userSpaceOnUse" x1="28.938" y1="-139.238" x2="28.938" y2="-150.577" gradientTransform="rotate(180 27.094 -65)"><stop offset="0" stop-color="#fff"/><stop offset=".999" stop-color="#272525"/></linearGradient><path id="Right_stem_2_" d="M25.2 20.2c.1-.1.2-.1.3-.2.5-.3 1-.7 1.4-1.1V9h-3.3v12.1c.6-.3 1.1-.6 1.6-.9z" opacity=".1" fill="url(#Right_stem_1_)"/></g><circle cx="18" cy="23.2" r="3.1" fill="none" stroke="#2a9cb7" stroke-width="2" stroke-miterlimit="10" id="circle"/></g></svg>