<svg version="1.1" id="Layer_1" xmlns="http://www.w3.org/2000/svg" x="0" y="0" viewBox="0 0 512 512" xml:space="preserve"><style>.st0{fill:#425fc6}</style><path class="st0" d="M373.4 0H138.6C62.2 0 0 62.2 0 138.6v234.8C0 449.8 62.2 512 138.6 512h234.8c76.4 0 138.6-62.2 138.6-138.6V138.6C512 62.2 449.8 0 373.4 0zM482 373.4c0 59.9-48.7 108.6-108.6 108.6H138.6C78.7 482 30 433.3 30 373.4V138.6C30 78.7 78.7 30 138.6 30h234.8C433.3 30 482 78.7 482 138.6v234.8z"/><path class="st0" d="M256 116c-77.2 0-140 62.8-140 140s62.8 140 140 140 140-62.8 140-140-62.8-140-140-140zm0 250c-60.6 0-110-49.3-110-110 0-60.6 49.3-110 110-110 60.6 0 110 49.3 110 110 0 60.6-49.4 110-110 110zM399.3 66.3c-22.8 0-41.4 18.6-41.4 41.4 0 22.8 18.6 41.4 41.4 41.4s41.4-18.6 41.4-41.4-18.5-41.4-41.4-41.4zm0 52.7c-6.3 0-11.4-5.1-11.4-11.4 0-6.3 5.1-11.4 11.4-11.4 6.3 0 11.4 5.1 11.4 11.4 0 6.3-5.1 11.4-11.4 11.4z"/></svg>