<?xml version="1.0" encoding="utf-8"?>
<!-- Generator: Adobe Illustrator 23.0.6, SVG Export Plug-In . SVG Version: 6.00 Build 0)  -->
<svg version="1.1" id="Capa_1" xmlns="http://www.w3.org/2000/svg" xmlns:xlink="http://www.w3.org/1999/xlink" x="0px" y="0px"
	 viewBox="0 0 122 122" style="enable-background:new 0 0 122 122;" xml:space="preserve">
<style type="text/css">
	.st0{fill:#FFFFFF;}
</style>
<path class="st0" d="M56.3,36.8l17.9-21.5h9.6v52.4l7.6,7.6V11.4c0-2.1-1.7-3.8-3.8-3.8H72.4c-1.1,0-2.2,0.5-2.9,1.4L51.6,30.5h-4.9
	l7.5,7.5C55,37.8,55.8,37.4,56.3,36.8L56.3,36.8z"/>
<path class="st0" d="M122,116.6L5.4,0L0,5.4l30.5,30.5l0,51.8c0,1,0.4,2,1.1,2.7c0.7,0.7,1.7,1.1,2.7,1.1h17.3L69.5,113
	c0.7,0.9,1.8,1.4,2.9,1.4h15.2c2.1,0,3.8-1.7,3.8-3.8V96.9l25.1,25.1L122,116.6L122,116.6z M83.9,106.8h-9.6L56.3,85.3
	c-0.7-0.9-1.8-1.4-2.9-1.4l-15.3,0l0-40.4l45.8,45.8C83.9,89.3,83.9,106.8,83.9,106.8L83.9,106.8z"/>
</svg>
