<svg version="1.1" id="Layer_2" xmlns="http://www.w3.org/2000/svg" x="0" y="0" viewBox="0 0 122 122" xml:space="preserve"><style>.st0{fill:#fff}</style><g id="Capa_1"><path class="st0" d="M41.9 90.8c-.7 0-1.3-.2-1.9-.5-1.2-.7-1.9-1.9-1.9-3.3V34.3c0-1.4.7-2.6 1.9-3.3 1.2-.7 2.6-.7 3.8 0l45.8 26.3c1.2.7 1.9 1.9 1.9 3.3s-.7 2.6-1.9 3.3L43.8 90.3c-.6.4-1.2.5-1.9.5zm3.9-49.9v39.5L80 60.6 45.8 40.9z"/><path class="st0" d="M61 122C27.4 122 0 94.6 0 61S27.4 0 61 0s61 27.4 61 61-27.4 61-61 61zM61 7.6C31.6 7.6 7.6 31.6 7.6 61s23.9 53.4 53.4 53.4 53.4-23.9 53.4-53.4S90.4 7.6 61 7.6z"/></g></svg>