<?xml version="1.0" encoding="utf-8"?>
<!-- Generator: Adobe Illustrator 23.0.6, SVG Export Plug-In . SVG Version: 6.00 Build 0)  -->
<svg version="1.1" id="Layer_2" xmlns="http://www.w3.org/2000/svg" xmlns:xlink="http://www.w3.org/1999/xlink" x="0px" y="0px"
	 viewBox="0 0 122 122" style="enable-background:new 0 0 122 122;" xml:space="preserve">
<style type="text/css">
	.st0{fill:#FFFFFF;}
</style>
<g id="Capa_1">
	<path class="st0" d="M41.9,90.8c-0.7,0-1.3-0.2-1.9-0.5c-1.2-0.7-1.9-1.9-1.9-3.3V34.3c0-1.4,0.7-2.6,1.9-3.3
		c1.2-0.7,2.6-0.7,3.8,0l45.8,26.3c1.2,0.7,1.9,1.9,1.9,3.3c0,1.4-0.7,2.6-1.9,3.3L43.8,90.3C43.2,90.7,42.6,90.8,41.9,90.8z
		 M45.8,40.9v39.5L80,60.6L45.8,40.9L45.8,40.9z"/>
	<path class="st0" d="M61,122C27.4,122,0,94.6,0,61S27.4,0,61,0s61,27.4,61,61S94.6,122,61,122z M61,7.6C31.6,7.6,7.6,31.6,7.6,61
		s23.9,53.4,53.4,53.4s53.4-23.9,53.4-53.4S90.4,7.6,61,7.6z"/>
</g>
</svg>
