<svg id="Layer_1" data-name="Layer 1" xmlns="http://www.w3.org/2000/svg" viewBox="0 0 511 511"><defs><style>.cls-1{fill:#425fc6;}</style></defs><title>secure</title><path class="cls-1" d="M435.15,59.88H400.07c-49.24,0-98.08-20.59-134-56.49a15,15,0,0,0-21.16,0c-35.91,35.9-84.75,56.49-134,56.49H75.85a15,15,0,0,0-15,15V254.5c0,59.93,18.79,110.55,57.44,154.75,32.39,37.05,73.23,62.84,106,83.57,8.14,5.14,15.83,10,22.84,14.67a15,15,0,0,0,16.6,0c6.78-4.52,14.34-9.28,22.33-14.32,65.3-41.16,164-103.36,164-238.67V74.85A15,15,0,0,0,435.15,59.88Zm-15,194.62c0,118.79-86.71,173.44-150,213.34-5.07,3.2-10,6.28-14.66,9.3q-7.27-4.69-15.15-9.64c-63.11-39.86-149.53-94.45-149.53-213V89.82h20.11c52.41,0,104.32-20,144.57-55.34,40.25,35.33,92.16,55.34,144.57,55.34h20.11Z"/><path class="cls-1" d="M255.5,119.77c-74.29,0-134.74,60.44-134.74,134.73S181.21,389.24,255.5,389.24,390.24,328.79,390.24,254.5,329.8,119.77,255.5,119.77Zm0,239.53A104.8,104.8,0,1,1,360.3,254.5,104.91,104.91,0,0,1,255.5,359.3Z"/><path class="cls-1" d="M304.8,214l-64.27,64.26L206.2,243.92A15,15,0,0,0,185,265.09L229.94,310a15,15,0,0,0,21.17,0L326,235.15A15,15,0,1,0,304.8,214Z"/></svg>