<svg data-name="Layer 1" xmlns="http://www.w3.org/2000/svg" viewBox="0 0 512 512"><path d="M360 97.92c-38.73-31.51-89.52-43.62-139.34-33.23C155.92 78.18 104.74 131.6 93.52 196.8c-9.85 57.19 9.85 111.5 48.39 148.4A126.46 126.46 0 01181 436v31a45 45 0 0045 45h60a45 45 0 0045-45v-39.93c0-29.05 13.52-57.79 38.08-80.91A165 165 0 00360 97.92zM286 482h-60a15 15 0 01-15-15v-16h90v16a15 15 0 01-15 15zm-30-163l-40.7-61 10.7-10.7 19.4 19.4a15 15 0 0021.21 0L286 247.21l10.7 10.7zm92.52 5.35c-29 27.29-45.65 61.42-47.37 96.69H271v-70.5l56.66-85 28.95-28.95a15 15 0 00-21.22-21.22L316 234.79l-19.39-19.4a15 15 0 00-21.22 0L256 234.79l-19.39-19.4a15 15 0 00-21.22 0L196 234.79l-19.4-19.4a15 15 0 00-21.21 21.22l29 28.95 56.66 85V421h-30.8a157 157 0 00-47.6-97.47c-33-31.61-47.43-75.94-39.57-121.64 9.2-53.49 50.87-96.82 103.69-107.84 41-8.53 82.61 1.36 114.32 27.15a135 135 0 017.43 203.11zM60 226a15 15 0 00-15-15H15a15 15 0 000 30h30a15 15 0 0015-15zm437-15h-30a15 15 0 000 30h30a15 15 0 000-30zM81.63 108l-26-15a15 15 0 00-15 26l26 15a15 15 0 1015-26zm389.71 225l-26-15a15 15 0 00-15 26l26 15a15 15 0 1015-26zM138 48.48a15 15 0 1026-15l-15-26a15 15 0 00-26 15zM66.63 318l-26 15a15 15 0 0015 26l26-15a15 15 0 10-15-26zm378.73-184l26-15a15 15 0 10-15-26l-26 15a15 15 0 0015 26zM353.5 54a15 15 0 0020.5-5.52l15-26a15 15 0 10-26-15l-15 26A15 15 0 00353.5 54z" fill="#425fc6"/></svg>