<svg id="Layer_1" data-name="Layer 1" xmlns="http://www.w3.org/2000/svg" viewBox="0 0 512 512"><defs><style>.cls-1{fill:#425fc6;}</style></defs><title>smart</title><path class="cls-1" d="M360,97.92C321.27,66.41,270.48,54.3,220.66,64.69,155.92,78.18,104.74,131.6,93.52,196.8c-9.85,57.19,9.85,111.5,48.39,148.4A126.46,126.46,0,0,1,181,436v31a45,45,0,0,0,45,45h60a45,45,0,0,0,45-45V427.07c0-29.05,13.52-57.79,38.08-80.91A165,165,0,0,0,360,97.92ZM286,482H226a15,15,0,0,1-15-15V451h90v16A15,15,0,0,1,286,482ZM256,319l-40.7-61,10.7-10.7,19.4,19.4a15,15,0,0,0,21.21,0L286,247.21l10.7,10.7Zm92.52,5.35c-29,27.29-45.65,61.42-47.37,96.69H271V350.54l56.66-85,28.95-28.95a15,15,0,0,0-21.22-21.22L316,234.79l-19.39-19.4a15,15,0,0,0-21.22,0L256,234.79l-19.39-19.4a15,15,0,0,0-21.22,0L196,234.79l-19.4-19.4a15,15,0,0,0-21.21,21.22l29,28.95,56.66,85V421H210.25a157,157,0,0,0-47.6-97.47c-33-31.61-47.43-75.94-39.57-121.64,9.2-53.49,50.87-96.82,103.69-107.84,41-8.53,82.61,1.36,114.32,27.15a135,135,0,0,1,7.43,203.11Z"/><path class="cls-1" d="M60,226a15,15,0,0,0-15-15H15a15,15,0,0,0,0,30H45A15,15,0,0,0,60,226Z"/><path class="cls-1" d="M497,211H467a15,15,0,0,0,0,30h30a15,15,0,0,0,0-30Z"/><path class="cls-1" d="M81.63,108l-26-15a15,15,0,0,0-15,26l26,15a15,15,0,1,0,15-26Z"/><path class="cls-1" d="M471.34,333l-26-15a15,15,0,0,0-15,26l26,15a15,15,0,1,0,15-26Z"/><path class="cls-1" d="M138,48.48a15,15,0,1,0,26-15l-15-26a15,15,0,0,0-26,15Z"/><path class="cls-1" d="M66.63,318l-26,15a15,15,0,0,0,15,26l26-15a15,15,0,1,0-15-26Z"/><path class="cls-1" d="M445.36,134l26-15a15,15,0,1,0-15-26l-26,15a15,15,0,0,0,15,26Z"/><path class="cls-1" d="M353.5,54A15,15,0,0,0,374,48.48l15-26a15,15,0,1,0-26-15l-15,26A15,15,0,0,0,353.5,54Z"/></svg>