<svg version="1.1" id="HomCom" xmlns="http://www.w3.org/2000/svg" x="0" y="0" viewBox="0 0 237 46" xml:space="preserve"><style>.st0{fill:#425fc6}</style><g id="HomeCom"><g id="Logo_2_"><path id="Left_stem_2_" class="st0" d="M10.9 0H1.6C.7 0 0 .9 0 1.9V5c0 8 3.7 14.9 9.2 18.5v18H3.3V21.4c0-1.1-.7-1.9-1.6-1.9s-1.6.9-1.6 1.9v22.1c0 1.1.7 1.9 1.6 1.9h9.2c.9 0 1.6-.9 1.6-1.9V21.1h-.1.1V2c0-1.1-.7-2-1.6-2zM3.3 5V3.9h5.9v15c.1.1.2.1.2.2 0-.1-.1-.1-.2-.2C5.6 15.7 3.3 10.7 3.3 5z"/><linearGradient id="Left_Inner_shadow_1_" gradientUnits="userSpaceOnUse" x1="125.288" y1="188.74" x2="125.288" y2="201.199" gradientTransform="matrix(-1 0 0 1 136.188 -180)"><stop offset="0" stop-color="#fff"/><stop offset=".999" stop-color="#272525"/></linearGradient><path id="Left_Inner_shadow_2_" d="M9.2 18.9c.1.1.2.1.2.2l1.2.9c.1.1.2.1.3.2.5.3 1 .6 1.6.9h.1V9H9.2v9.9z" opacity=".1" fill="url(#Left_Inner_shadow_1_)"/><path id="Right_stem_4_" class="st0" d="M36 5V1.9c0-1-.7-1.9-1.6-1.9h-9.2c-.9 0-1.6.9-1.6 1.9v41.4c0 1.1.7 1.9 1.6 1.9h9.2c.9 0 1.6-.9 1.6-1.9V21.7c0-1.1-.7-1.9-1.6-1.9-.9 0-1.6.9-1.6 1.9v19.8h-5.9v-18C32.3 19.8 36 12.9 36 5zm-9.1 13.9v-15h5.9V5c-.1 5.7-2.4 10.7-5.9 13.9z"/><linearGradient id="Right_stem_2_" gradientUnits="userSpaceOnUse" x1="110.938" y1="189.238" x2="110.938" y2="200.577" gradientTransform="matrix(-1 0 0 1 136.188 -180)"><stop offset="0" stop-color="#fff"/><stop offset=".999" stop-color="#272525"/></linearGradient><path id="Right_stem_1_" d="M25.2 20.2c.1-.1.2-.1.3-.2.5-.3 1-.7 1.4-1.1V9h-3.3v12.1c.6-.3 1.1-.6 1.6-.9z" opacity=".1" fill="url(#Right_stem_2_)"/></g><circle cx="18" cy="23.2" r="3.1" fill="none" stroke="#425fc6" stroke-width="2" stroke-miterlimit="10" id="circle"/></g><g id="HomeCom_1_"><path class="st0" d="M49 21.8h-5.6v-2H57v2h-5.6v15.4H49V21.8zm12.7-2.9v7.5c.6-1.1 1.8-2.2 4-2.2 2 0 4.3 1.1 4.3 4.9v8.1h-2.2v-7.7c0-2.2-.9-3.4-2.8-3.4-2.3 0-3.3 1.5-3.3 4.1v6.9h-2.2V18.9h2.2zm13.8 12.4c0 2.6 1.3 4.4 3.5 4.4 2 0 2.7-1 3.1-2h2.2c-.5 1.6-1.9 3.8-5.3 3.8-4 0-5.6-3.2-5.6-6.5 0-3.8 1.9-6.8 5.7-6.8 4.1 0 5.4 3.3 5.4 6v1.1h-9zm6.7-1.5c0-2.1-1.1-3.8-3.2-3.8-2.2 0-3.2 1.6-3.4 3.8h6.6zm5.5-1.8v-3.4h2.1c0 .4.1 1.3.1 2.6.7-1.7 2.2-2.8 4.3-2.9v2.2c-2.6.1-4.3 1.4-4.3 4.6v6.1h-2.2V28zm9.4-.2v-3.3h2.1c0 .4.1 1.3.1 1.9.6-1.1 1.7-2.2 3.7-2.2 1.8 0 3 .9 3.5 2.3.7-1.2 1.9-2.3 4-2.3s4 1.2 4 4.6v8.3h-2.2V29c0-1.5-.5-3-2.5-3-2.1 0-3 1.6-3 3.8v7.3h-2.1v-8c0-1.6-.5-3.1-2.4-3.1-2 0-3 1.6-3 4.1v7h-2.2v-9.3zm32.5 3.1c0 3.6-2.1 6.7-6 6.7-3.6 0-5.8-2.8-5.8-6.6 0-3.7 2.2-6.7 6-6.7 3.5 0 5.8 2.6 5.8 6.6zm-9.5 0c0 2.8 1.4 4.8 3.7 4.8 2.3 0 3.6-1.9 3.6-4.8s-1.3-4.8-3.7-4.8c-2.4 0-3.6 1.9-3.6 4.8zm14.4 1.5c.5 2.1 1.9 3.2 4.4 3.2 2.7 0 3.8-1.3 3.8-2.9 0-1.7-.9-2.7-4.3-3.6-4.1-1-5.5-2.4-5.5-4.8 0-2.6 1.9-4.7 5.8-4.7 4.1 0 5.8 2.4 6.1 4.7h-2.3c-.3-1.5-1.3-2.8-3.8-2.8-2.1 0-3.3 1-3.3 2.6s1 2.3 4 3c5 1.2 5.8 3.1 5.8 5.4 0 2.8-2.1 5-6.3 5-4.4 0-6.3-2.4-6.6-5.1h2.2zm15.5-1.1c0 2.6 1.3 4.4 3.5 4.4 2 0 2.7-1 3.1-2h2.2c-.5 1.6-1.9 3.8-5.3 3.8-4 0-5.6-3.2-5.6-6.5 0-3.8 1.9-6.8 5.7-6.8 4.1 0 5.4 3.3 5.4 6v1.1h-9zm6.7-1.5c0-2.1-1.1-3.8-3.2-3.8-2.2 0-3.2 1.6-3.4 3.8h6.6zm15.5 3.6c-.5 2.2-2 4.2-5.2 4.2-3.5 0-5.6-2.5-5.6-6.6 0-3.6 2-6.7 5.8-6.7 3.7 0 4.9 2.6 5.1 4.2h-2.2c-.3-1.3-1.1-2.4-3-2.4-2.2 0-3.5 1.9-3.5 4.8s1.2 4.8 3.4 4.8c1.6 0 2.5-.8 3-2.4l2.2.1zm13.4.1v3.7h-2.1c-.1-.3-.1-1.1-.1-1.9-.6 1.4-1.8 2.2-3.8 2.2-2.1 0-4.2-1.1-4.2-4.6v-8.3h2.2v7.9c0 1.7.5 3.2 2.6 3.2 2.3 0 3.2-1.3 3.2-4.5v-6.6h2.2v8.9zm4.2-5.5v-3.4h2.1c0 .4.1 1.3.1 2.6.7-1.7 2.2-2.8 4.3-2.9v2.2c-2.6.1-4.3 1.4-4.3 4.6v6.1h-2.2V28zm9.4-9.1h2.2v2.7h-2.2v-2.7zm0 5.7h2.2v12.7h-2.2V24.6zm4.8 0h2.2v-3.7h2.2v3.7h2.8v1.8h-2.8v7.4c0 1.2.3 1.9 1.4 1.9.3 0 .8 0 1.1-.1v1.6c-.5.2-1.3.2-1.9.2-2 0-2.8-1-2.8-3.1v-7.9H204v-1.8zm10.9 0c2 6.1 3.2 9.4 3.5 10.7.4-1.4 1.3-4.3 3.4-10.7h2.2l-4.6 13.2c-1.3 3.7-2.2 4.6-4.8 4.6-.4 0-.9 0-1.4-.1v-1.9c.3 0 .7.1 1 .1 1.6 0 2.2-.7 3-2.8l-4.7-13.2h2.4v.1z"/><g id="Trademark"><path class="st0" d="M226.7 19h-1.6v-.6h3.8v.6h-1.6v4.3h-.7V19h.1zm7.2 2.3V19c-.2.8-1 2.9-1.6 4.4h-.6c-.4-1.2-1.2-3.6-1.5-4.4 0 .6.1 1.6.1 2.5v1.9h-.6v-4.9h1c.6 1.5 1.2 3.5 1.4 4.1.1-.5.9-2.6 1.5-4.1h.9v4.9h-.6v-2.1z" id="Trademark_1_"/></g></g></svg>