<svg xmlns="http://www.w3.org/2000/svg" viewBox="0 0 512 512"><path d="M197.3 461.4c-85.5 0-153-14.9-185.3-41l-.6-.5-.6-.6c-7.7-7.7-10.2-17.8-6.9-27.6l.3-.8c4-10 13.8-16.7 24.4-16.8 21.9-.4 41-3 58.3-8-27.7-12.9-46.9-35.2-58.4-67.4-3.8-10.1-.5-21.2 8.3-27.9 2.2-1.6 4.7-2.9 7.3-3.7-15.4-17.8-26.7-38-33.1-59.3l-.2-.7-.1-.7c-2.2-10.8 2.7-21.9 11.5-26.7 3.7-2.1 7.8-3.2 11.8-3.3-4.4-9.4-7.5-19.1-9.4-28.8-5.2-26.9-.9-53.9 12.8-80.2l3.2-6.4c2.5-5.1 7.4-8.7 13-9.6 5.6-.9 11.3.9 15.4 5l5.8 5.8c45.7 47.9 86.6 70.6 157.4 86.2 3.2-27.2 14.9-52.4 33.9-72.3 22.6-23.6 52.7-36.9 84.8-37.4h.2c23.4 0 52.5 13.4 70.1 22.8 15.1-4.9 33.3-12.6 52.1-20.7 8.8-4.1 19.7-2.2 26.6 4.7 6.8 6.8 8.7 16.4 5.1 25.7-1.4 3.8-2.9 7.6-4.7 11.2 2.6 1.2 4.9 2.8 6.9 4.8 6 6 8.6 15.5 6.4 24.1l-.2.8c-7.2 23.3-21.1 42.3-39.5 54.2-3 163.3-125.9 295.1-276.6 295.1zM40.8 403.7c30.4 17.2 88.5 27.6 156.5 27.6 65.4 0 127.1-28.1 173.8-79.1 47.1-51.4 73-119.7 73-192.2v-.8c0-6.6 3.6-12.6 9.4-15.7 11.8-6.3 21.4-16.9 27.6-30.5-6.4 1-12.9-1.6-16.9-6.9-4.6-6.2-4.7-14.7-.1-21 2.5-3.4 4.7-6.9 6.7-10.6-16.3 6.8-31.8 13-45.2 17-4.9 1.5-10.3.9-14.8-1.6-23.9-13.3-46.2-21.3-59.6-21.3-49.5.8-89.8 43.2-89.8 94.6 0 5.3-2.4 10.3-6.5 13.7-4.1 3.4-9.5 4.7-14.7 3.7-81.6-16-129.9-40.1-180.2-90.6-7.2 17.3-9.2 34.7-5.8 51.8 3.4 17.4 12.4 34.8 26 50.4 5.2 5.9 5.9 14.4 1.7 21.1-4.1 6.7-12 9.8-19.6 7.7-5.9-1.6-11.4-3.7-16.5-6.3 10.5 22.8 28.6 43.9 51.3 59.5 6.6 4.5 9.3 12.9 6.7 20.5-2.6 7.5-10 12.4-18 11.8-8.7-.6-16.4-2.3-23.5-5.1 12.7 25.9 33.1 40.2 64.4 45.7 7.5 1.3 13.3 7.2 14.5 14.7 1.2 7.5-2.5 14.9-9.2 18.4-26.8 14-56 21.6-91.2 23.5z" fill="#425fc6"/></svg>