<?xml version="1.0" encoding="utf-8"?>
<!-- Generator: Adobe Illustrator 23.0.0, SVG Export Plug-In . SVG Version: 6.00 Build 0)  -->
<svg version="1.1" id="Layer_1" xmlns="http://www.w3.org/2000/svg" xmlns:xlink="http://www.w3.org/1999/xlink" x="0px" y="0px"
	 viewBox="0 0 512 512" style="enable-background:new 0 0 512 512;" xml:space="preserve">
<style type="text/css">
	.st0{fill:#425FC6;}
</style>
<path class="st0" d="M197.3,461.4c-85.5,0-153-14.9-185.3-41l-0.6-0.5l-0.6-0.6c-7.7-7.7-10.2-17.8-6.9-27.6l0.3-0.8
	c4-10,13.8-16.7,24.4-16.8c21.9-0.4,41-3,58.3-8c-27.7-12.9-46.9-35.2-58.4-67.4c-3.8-10.1-0.5-21.2,8.3-27.9
	c2.2-1.6,4.7-2.9,7.3-3.7c-15.4-17.8-26.7-38-33.1-59.3l-0.2-0.7l-0.1-0.7c-2.2-10.8,2.7-21.9,11.5-26.7c3.7-2.1,7.8-3.2,11.8-3.3
	c-4.4-9.4-7.5-19.1-9.4-28.8c-5.2-26.9-0.9-53.9,12.8-80.2l3.2-6.4c2.5-5.1,7.4-8.7,13-9.6c5.6-0.9,11.3,0.9,15.4,5l5.8,5.8
	c45.7,47.9,86.6,70.6,157.4,86.2c3.2-27.2,14.9-52.4,33.9-72.3c22.6-23.6,52.7-36.9,84.8-37.4h0.2c23.4,0,52.5,13.4,70.1,22.8
	c15.1-4.9,33.3-12.6,52.1-20.7c8.8-4.1,19.7-2.2,26.6,4.7c6.8,6.8,8.7,16.4,5.1,25.7c-1.4,3.8-2.9,7.6-4.7,11.2
	c2.6,1.2,4.9,2.8,6.9,4.8c6,6,8.6,15.5,6.4,24.1l-0.2,0.8c-7.2,23.3-21.1,42.3-39.5,54.2C470.9,329.6,348,461.4,197.3,461.4z
	 M40.8,403.7c30.4,17.2,88.5,27.6,156.5,27.6c65.4,0,127.1-28.1,173.8-79.1c47.1-51.4,73-119.7,73-192.2v-0.8
	c0-6.6,3.6-12.6,9.4-15.7c11.8-6.3,21.4-16.9,27.6-30.5c-6.4,1-12.9-1.6-16.9-6.9c-4.6-6.2-4.7-14.7-0.1-21
	c2.5-3.4,4.7-6.9,6.7-10.6c-16.3,6.8-31.8,13-45.2,17c-4.9,1.5-10.3,0.9-14.8-1.6c-23.9-13.3-46.2-21.3-59.6-21.3
	c-49.5,0.8-89.8,43.2-89.8,94.6c0,5.3-2.4,10.3-6.5,13.7c-4.1,3.4-9.5,4.7-14.7,3.7C158.6,164.6,110.3,140.5,60,90
	c-7.2,17.3-9.2,34.7-5.8,51.8c3.4,17.4,12.4,34.8,26,50.4c5.2,5.9,5.9,14.4,1.7,21.1c-4.1,6.7-12,9.8-19.6,7.7
	c-5.9-1.6-11.4-3.7-16.5-6.3c10.5,22.8,28.6,43.9,51.3,59.5c6.6,4.5,9.3,12.9,6.7,20.5c-2.6,7.5-10,12.4-18,11.8
	c-8.7-0.6-16.4-2.3-23.5-5.1c12.7,25.9,33.1,40.2,64.4,45.7c7.5,1.3,13.3,7.2,14.5,14.7c1.2,7.5-2.5,14.9-9.2,18.4
	C105.2,394.2,76,401.8,40.8,403.7z"/>
</svg>
