<?xml version="1.0" encoding="utf-8"?>
<!-- Generator: Adobe Illustrator 23.0.6, SVG Export Plug-In . SVG Version: 6.00 Build 0)  -->
<svg version="1.1" id="Capa_1" xmlns="http://www.w3.org/2000/svg" xmlns:xlink="http://www.w3.org/1999/xlink" x="0px" y="0px"
	 viewBox="0 0 53.4 93.4" style="enable-background:new 0 0 53.4 93.4;" xml:space="preserve">
<style type="text/css">
	.st0{fill:#FFFFFF;}
</style>
<path class="st0" d="M50,93.4c-0.7,0-1.3-0.2-1.8-0.6L19,73.4H3.3C1.5,73.4,0,71.9,0,70V23.3C0,21.5,1.5,20,3.3,20H19L48.2,0.6
	c1-0.7,2.4-0.7,3.4-0.2c1.1,0.6,1.8,1.7,1.8,2.9V90c0,1.2-0.7,2.4-1.8,2.9C51.1,93.3,50.6,93.4,50,93.4z M6.7,66.7H20
	c0.7,0,1.3,0.2,1.8,0.6l24.8,16.6V9.6L21.9,26.1c-0.5,0.4-1.2,0.6-1.8,0.6H6.7V66.7L6.7,66.7z"/>
</svg>
