<?xml version="1.0" encoding="utf-8"?>
<!-- Generator: Adobe Illustrator 23.0.6, SVG Export Plug-In . SVG Version: 6.00 Build 0)  -->
<svg version="1.1" id="HomCom" xmlns="http://www.w3.org/2000/svg" xmlns:xlink="http://www.w3.org/1999/xlink" x="0px" y="0px"
	 viewBox="0 0 36 45.4" style="enable-background:new 0 0 36 45.4;" xml:space="preserve">
<style type="text/css">
	.st0{fill:#FFFFFF;}
	.st1{opacity:0.1;fill:url(#Left_Inner_shadow_2_);}
	.st2{opacity:0.1;fill:url(#Right_stem_1_);}
	.st3{fill:none;stroke:#FFFFFF;stroke-width:2;stroke-miterlimit:10;}
</style>
<g id="HomeCom">
	<g id="Logo_1_">
		<path id="Left_stem_1_" class="st0" d="M10.9,0H1.6C0.7,0,0,0.9,0,1.9V5C0,13,3.7,19.9,9.2,23.5v18H3.3V21.4
			c0-1.1-0.7-1.9-1.6-1.9c-0.9,0-1.6,0.9-1.6,1.9v22.1c0,1.1,0.7,1.9,1.6,1.9h9.2c0.9,0,1.6-0.9,1.6-1.9V25.2v-4.1c0,0,0,0-0.1,0
			c0,0,0,0,0.1,0V9v-7C12.5,0.9,11.8,0,10.9,0z M3.3,5V3.9h5.9V9v9.9C9.3,19,9.4,19,9.4,19.1C9.4,19,9.3,19,9.2,18.9v0
			C5.6,15.7,3.3,10.7,3.3,5z"/>
		
			<linearGradient id="Left_Inner_shadow_2_" gradientUnits="userSpaceOnUse" x1="107.3201" y1="29.2596" x2="107.3201" y2="16.8006" gradientTransform="matrix(-1 0 0 -1 118.1882 38)">
			<stop  offset="0" style="stop-color:#FFFFFF"/>
			<stop  offset="0.9987" style="stop-color:#272525"/>
		</linearGradient>
		<path id="Left_Inner_shadow_1_" class="st1" d="M9.2,18.9C9.3,19,9.4,19,9.4,19.1c0.4,0.3,0.8,0.6,1.2,0.9
			c0.1,0.1,0.2,0.1,0.3,0.2c0.5,0.3,1,0.6,1.6,0.9c0,0,0,0,0.1,0V9H9.2V18.9z"/>
		<path id="Right_stem_3_" class="st0" d="M36,5V1.9C36,0.9,35.3,0,34.4,0h-9.2c-0.9,0-1.6,0.9-1.6,1.9v7v12.1c0,0,0,0,0,0
			c0,0,0,0,0,0v4.1v18.2c0,1.1,0.7,1.9,1.6,1.9h9.2c0.9,0,1.6-0.9,1.6-1.9V21.7c0-1.1-0.7-1.9-1.6-1.9c-0.9,0-1.6,0.9-1.6,1.9v19.8
			h-5.9v-18C32.3,19.8,36,12.9,36,5z M26.9,18.9C26.9,18.9,26.9,18.9,26.9,18.9l0-9.9V3.9h5.9V5C32.7,10.7,30.4,15.7,26.9,18.9
			L26.9,18.9L26.9,18.9C26.9,18.9,26.9,18.9,26.9,18.9z"/>
		
			<linearGradient id="Right_stem_1_" gradientUnits="userSpaceOnUse" x1="92.9564" y1="28.7615" x2="92.9564" y2="17.4227" gradientTransform="matrix(-1 0 0 -1 118.1882 38)">
			<stop  offset="0" style="stop-color:#FFFFFF"/>
			<stop  offset="0.9987" style="stop-color:#272525"/>
		</linearGradient>
		<path id="Right_stem_2_" class="st2" d="M25.2,20.2c0.1-0.1,0.2-0.1,0.3-0.2c0.5-0.3,1-0.7,1.4-1.1c0,0,0,0,0,0V9h-3.3v12.1
			c0,0,0,0,0,0C24.2,20.8,24.7,20.5,25.2,20.2z"/>
	</g>
	<g id="circle">
		<circle class="st3" cx="18" cy="23.2" r="3.1"/>
	</g>
</g>
<g id="HomeCom_1_">
</g>
</svg>
