<?xml version="1.0" encoding="utf-8"?>
<!-- Generator: Adobe Illustrator 23.0.6, SVG Export Plug-In . SVG Version: 6.00 Build 0)  -->
<svg version="1.1" id="HomCom" xmlns="http://www.w3.org/2000/svg" xmlns:xlink="http://www.w3.org/1999/xlink" x="0px" y="0px"
	 viewBox="0 0 182 45.4" style="enable-background:new 0 0 182 45.4;" xml:space="preserve">
<style type="text/css">
	.st0{fill:#FFFFFF;}
	.st1{opacity:0.1;fill:url(#Left_Inner_shadow_2_);}
	.st2{opacity:0.1;fill:url(#Right_stem_1_);}
	.st3{fill:none;stroke:#FFFFFF;stroke-width:2;stroke-miterlimit:10;}
</style>
<g id="HomeCom">
	<g id="Logo_1_">
		<path id="Left_stem_1_" class="st0" d="M10.9,0H1.6C0.7,0,0,0.9,0,1.9V5C0,13,3.7,19.9,9.2,23.5v18H3.3V21.4
			c0-1.1-0.7-1.9-1.6-1.9c-0.9,0-1.6,0.9-1.6,1.9v22.1c0,1.1,0.7,1.9,1.6,1.9h9.2c0.9,0,1.6-0.9,1.6-1.9V25.2v-4.1c0,0,0,0-0.1,0
			c0,0,0,0,0.1,0V9v-7C12.5,0.9,11.8,0,10.9,0z M3.3,5V3.9h5.9V9v9.9C9.3,19,9.4,19,9.4,19.1C9.4,19,9.3,19,9.2,18.9v0
			C5.6,15.7,3.3,10.7,3.3,5z"/>
		
			<linearGradient id="Left_Inner_shadow_2_" gradientUnits="userSpaceOnUse" x1="107.3201" y1="29.2596" x2="107.3201" y2="16.8006" gradientTransform="matrix(-1 0 0 -1 118.1882 38)">
			<stop  offset="0" style="stop-color:#FFFFFF"/>
			<stop  offset="0.9987" style="stop-color:#272525"/>
		</linearGradient>
		<path id="Left_Inner_shadow_1_" class="st1" d="M9.2,18.9C9.3,19,9.4,19,9.4,19.1c0.4,0.3,0.8,0.6,1.2,0.9
			c0.1,0.1,0.2,0.1,0.3,0.2c0.5,0.3,1,0.6,1.6,0.9c0,0,0,0,0.1,0V9H9.2V18.9z"/>
		<path id="Right_stem_3_" class="st0" d="M36,5V1.9C36,0.9,35.3,0,34.4,0h-9.2c-0.9,0-1.6,0.9-1.6,1.9v7v12.1c0,0,0,0,0,0
			c0,0,0,0,0,0v4.1v18.2c0,1.1,0.7,1.9,1.6,1.9h9.2c0.9,0,1.6-0.9,1.6-1.9V21.7c0-1.1-0.7-1.9-1.6-1.9c-0.9,0-1.6,0.9-1.6,1.9v19.8
			h-5.9v-18C32.3,19.8,36,12.9,36,5z M26.9,18.9C26.9,18.9,26.9,18.9,26.9,18.9l0-9.9V3.9h5.9V5C32.7,10.7,30.4,15.7,26.9,18.9
			L26.9,18.9L26.9,18.9C26.9,18.9,26.9,18.9,26.9,18.9z"/>
		
			<linearGradient id="Right_stem_1_" gradientUnits="userSpaceOnUse" x1="92.9564" y1="28.7615" x2="92.9564" y2="17.4227" gradientTransform="matrix(-1 0 0 -1 118.1882 38)">
			<stop  offset="0" style="stop-color:#FFFFFF"/>
			<stop  offset="0.9987" style="stop-color:#272525"/>
		</linearGradient>
		<path id="Right_stem_2_" class="st2" d="M25.2,20.2c0.1-0.1,0.2-0.1,0.3-0.2c0.5-0.3,1-0.7,1.4-1.1c0,0,0,0,0,0V9h-3.3v12.1
			c0,0,0,0,0,0C24.2,20.8,24.7,20.5,25.2,20.2z"/>
	</g>
	<g id="circle">
		<circle class="st3" cx="18" cy="23.2" r="3.1"/>
	</g>
</g>
<g id="HomeCom_1_">
	<g>
		<g>
			<path class="st0" d="M45.4,18.9h2.3v7.3h9.1v-7.3h2.3v17.4h-2.3v-8.1h-9.1v8.1h-2.3V18.9z"/>
			<path class="st0" d="M74.7,29.9c0,3.6-2.1,6.7-6,6.7c-3.6,0-5.8-2.8-5.8-6.6c0-3.7,2.1-6.7,6-6.7C72.4,23.3,74.7,25.9,74.7,29.9z
				 M65.1,29.9c0,2.8,1.4,4.8,3.7,4.8c2.3,0,3.6-1.9,3.6-4.8c0-2.9-1.3-4.8-3.7-4.8C66.4,25.1,65.1,27,65.1,29.9z"/>
			<path class="st0" d="M88.2,32.5c0,1.2,0,2.9,0,3.7h-2.1c0-0.3-0.1-1.1-0.1-1.9c-0.6,1.4-1.8,2.2-3.8,2.2c-2.1,0-4.2-1.1-4.2-4.6
				v-8.3h2.2v7.9c0,1.7,0.5,3.2,2.6,3.2c2.3,0,3.2-1.3,3.2-4.5v-6.6h2.2V32.5z"/>
			<path class="st0" d="M93.6,32.6c0.4,1.4,1.4,2.2,3.1,2.2c1.9,0,2.6-0.8,2.6-2c0-1.2-0.6-1.7-3-2.3c-3.6-0.9-4.4-2-4.4-3.7
				c0-1.8,1.3-3.6,4.6-3.6c3.3,0,4.6,1.9,4.8,3.7h-2.1c-0.2-0.8-0.8-2-2.7-2c-1.8,0-2.3,0.9-2.3,1.7c0,0.9,0.5,1.4,2.8,2
				c3.8,0.9,4.6,2.2,4.6,4.1c0,2.2-1.8,3.8-4.9,3.8c-3.3,0-4.9-1.7-5.2-3.9H93.6z"/>
			<path class="st0" d="M106.1,30.3c0,2.6,1.3,4.4,3.5,4.4c2,0,2.7-1,3.1-2h2.2c-0.5,1.6-1.9,3.8-5.3,3.8c-4,0-5.6-3.2-5.6-6.5
				c0-3.8,1.9-6.8,5.7-6.8c4.1,0,5.4,3.3,5.4,6c0,0.4,0,0.7,0,1.1H106.1z M112.9,28.8c0-2.1-1.1-3.8-3.2-3.8c-2.2,0-3.2,1.6-3.4,3.8
				H112.9z"/>
			<path class="st0" d="M132.6,31.3c-0.8,2.9-3,5.1-6.9,5.1c-5.2,0-7.8-3.9-7.8-8.9c0-4.7,2.6-9,7.9-9c4.1,0,6.3,2.3,6.8,5.2h-2.3
				c-0.6-1.9-1.9-3.3-4.6-3.3c-3.8,0-5.4,3.5-5.4,7c0,3.4,1.5,7,5.5,7c2.7,0,3.9-1.5,4.5-3.2H132.6z"/>
			<path class="st0" d="M147,29.9c0,3.6-2.1,6.7-6,6.7c-3.6,0-5.8-2.8-5.8-6.6c0-3.7,2.2-6.7,6-6.7C144.7,23.3,147,25.9,147,29.9z
				 M137.4,29.9c0,2.8,1.4,4.8,3.7,4.8c2.3,0,3.6-1.9,3.6-4.8c0-2.9-1.3-4.8-3.7-4.8C138.7,25.1,137.4,27,137.4,29.9z"/>
			<path class="st0" d="M150.4,26.8c0-1.1,0-2.2,0-3.3h2.1c0,0.4,0.1,1.3,0.1,1.9c0.6-1.1,1.7-2.2,3.7-2.2c1.8,0,3,0.9,3.5,2.3
				c0.7-1.2,1.9-2.3,4-2.3c2.1,0,4,1.2,4,4.6v8.3h-2.2v-8.1c0-1.5-0.5-3-2.5-3c-2.1,0-3,1.6-3,3.8v7.3H158v-8c0-1.6-0.5-3.1-2.4-3.1
				c-2,0-3,1.6-3,4.1v7h-2.2V26.8z"/>
		</g>
	</g>
	<g id="Trademark">
		<g id="Trademark_1_">
			<path class="st0" d="M170.7,19h-1.6v-0.6h3.8V19h-1.6v4.3h-0.7V19z"/>
			<path class="st0" d="M177.9,21.3c0-0.9,0-1.8,0-2.3h0c-0.2,0.8-1,2.9-1.6,4.4h-0.6c-0.4-1.2-1.2-3.6-1.5-4.4h0
				c0,0.6,0.1,1.6,0.1,2.5v1.9h-0.6v-4.9h1c0.6,1.5,1.2,3.5,1.4,4.1h0c0.1-0.5,0.9-2.6,1.5-4.1h0.9v4.9h-0.6V21.3z"/>
		</g>
	</g>
</g>
</svg>
