<svg version="1.1" id="HomCom" xmlns="http://www.w3.org/2000/svg" x="0" y="0" viewBox="0 0 182 45.4" xml:space="preserve"><style>.st0{fill:#fff}</style><g id="HomeCom"><g id="Logo_1_"><path id="Left_stem_1_" class="st0" d="M10.9 0H1.6C.7 0 0 .9 0 1.9V5c0 8 3.7 14.9 9.2 18.5v18H3.3V21.4c0-1.1-.7-1.9-1.6-1.9-.9 0-1.6.9-1.6 1.9v22.1c0 1.1.7 1.9 1.6 1.9h9.2c.9 0 1.6-.9 1.6-1.9V21.1h-.1.1V2c0-1.1-.7-2-1.6-2zM3.3 5V3.9h5.9v15c.1.1.2.1.2.2 0-.1-.1-.1-.2-.2C5.6 15.7 3.3 10.7 3.3 5z"/><linearGradient id="Left_Inner_shadow_2_" gradientUnits="userSpaceOnUse" x1="107.32" y1="29.26" x2="107.32" y2="16.801" gradientTransform="rotate(180 59.094 19)"><stop offset="0" stop-color="#fff"/><stop offset=".999" stop-color="#272525"/></linearGradient><path id="Left_Inner_shadow_1_" d="M9.2 18.9c.1.1.2.1.2.2l1.2.9c.1.1.2.1.3.2.5.3 1 .6 1.6.9h.1V9H9.2v9.9z" opacity=".1" fill="url(#Left_Inner_shadow_2_)"/><path id="Right_stem_3_" class="st0" d="M36 5V1.9c0-1-.7-1.9-1.6-1.9h-9.2c-.9 0-1.6.9-1.6 1.9v41.4c0 1.1.7 1.9 1.6 1.9h9.2c.9 0 1.6-.9 1.6-1.9V21.7c0-1.1-.7-1.9-1.6-1.9-.9 0-1.6.9-1.6 1.9v19.8h-5.9v-18C32.3 19.8 36 12.9 36 5zm-9.1 13.9v-15h5.9V5c-.1 5.7-2.4 10.7-5.9 13.9z"/><linearGradient id="Right_stem_1_" gradientUnits="userSpaceOnUse" x1="92.956" y1="28.762" x2="92.956" y2="17.423" gradientTransform="rotate(180 59.094 19)"><stop offset="0" stop-color="#fff"/><stop offset=".999" stop-color="#272525"/></linearGradient><path id="Right_stem_2_" d="M25.2 20.2c.1-.1.2-.1.3-.2.5-.3 1-.7 1.4-1.1V9h-3.3v12.1c.6-.3 1.1-.6 1.6-.9z" opacity=".1" fill="url(#Right_stem_1_)"/></g><circle cx="18" cy="23.2" r="3.1" fill="none" stroke="#fff" stroke-width="2" stroke-miterlimit="10" id="circle"/></g><g id="HomeCom_1_"><path class="st0" d="M45.4 18.9h2.3v7.3h9.1v-7.3h2.3v17.4h-2.3v-8.1h-9.1v8.1h-2.3V18.9zm29.3 11c0 3.6-2.1 6.7-6 6.7-3.6 0-5.8-2.8-5.8-6.6 0-3.7 2.1-6.7 6-6.7 3.5 0 5.8 2.6 5.8 6.6zm-9.6 0c0 2.8 1.4 4.8 3.7 4.8 2.3 0 3.6-1.9 3.6-4.8s-1.3-4.8-3.7-4.8c-2.3 0-3.6 1.9-3.6 4.8zm23.1 2.6v3.7h-2.1c0-.3-.1-1.1-.1-1.9-.6 1.4-1.8 2.2-3.8 2.2-2.1 0-4.2-1.1-4.2-4.6v-8.3h2.2v7.9c0 1.7.5 3.2 2.6 3.2 2.3 0 3.2-1.3 3.2-4.5v-6.6h2.2v8.9zm5.4.1c.4 1.4 1.4 2.2 3.1 2.2 1.9 0 2.6-.8 2.6-2s-.6-1.7-3-2.3c-3.6-.9-4.4-2-4.4-3.7 0-1.8 1.3-3.6 4.6-3.6s4.6 1.9 4.8 3.7h-2.1c-.2-.8-.8-2-2.7-2-1.8 0-2.3.9-2.3 1.7 0 .9.5 1.4 2.8 2 3.8.9 4.6 2.2 4.6 4.1 0 2.2-1.8 3.8-4.9 3.8-3.3 0-4.9-1.7-5.2-3.9h2.1zm12.5-2.3c0 2.6 1.3 4.4 3.5 4.4 2 0 2.7-1 3.1-2h2.2c-.5 1.6-1.9 3.8-5.3 3.8-4 0-5.6-3.2-5.6-6.5 0-3.8 1.9-6.8 5.7-6.8 4.1 0 5.4 3.3 5.4 6v1.1h-9zm6.8-1.5c0-2.1-1.1-3.8-3.2-3.8-2.2 0-3.2 1.6-3.4 3.8h6.6zm19.7 2.5c-.8 2.9-3 5.1-6.9 5.1-5.2 0-7.8-3.9-7.8-8.9 0-4.7 2.6-9 7.9-9 4.1 0 6.3 2.3 6.8 5.2h-2.3c-.6-1.9-1.9-3.3-4.6-3.3-3.8 0-5.4 3.5-5.4 7 0 3.4 1.5 7 5.5 7 2.7 0 3.9-1.5 4.5-3.2h2.3zm14.4-1.4c0 3.6-2.1 6.7-6 6.7-3.6 0-5.8-2.8-5.8-6.6 0-3.7 2.2-6.7 6-6.7 3.5 0 5.8 2.6 5.8 6.6zm-9.6 0c0 2.8 1.4 4.8 3.7 4.8 2.3 0 3.6-1.9 3.6-4.8s-1.3-4.8-3.7-4.8c-2.3 0-3.6 1.9-3.6 4.8zm13-3.1v-3.3h2.1c0 .4.1 1.3.1 1.9.6-1.1 1.7-2.2 3.7-2.2 1.8 0 3 .9 3.5 2.3.7-1.2 1.9-2.3 4-2.3s4 1.2 4 4.6v8.3h-2.2V28c0-1.5-.5-3-2.5-3-2.1 0-3 1.6-3 3.8v7.3H158v-8c0-1.6-.5-3.1-2.4-3.1-2 0-3 1.6-3 4.1v7h-2.2v-9.3z"/><g id="Trademark"><path class="st0" d="M170.7 19h-1.6v-.6h3.8v.6h-1.6v4.3h-.7V19zm7.2 2.3V19c-.2.8-1 2.9-1.6 4.4h-.6c-.4-1.2-1.2-3.6-1.5-4.4 0 .6.1 1.6.1 2.5v1.9h-.6v-4.9h1c.6 1.5 1.2 3.5 1.4 4.1.1-.5.9-2.6 1.5-4.1h.9v4.9h-.6v-2.1z" id="Trademark_1_"/></g></g></svg>