<?xml version="1.0" encoding="utf-8"?>
<!-- Generator: Adobe Illustrator 23.0.6, SVG Export Plug-In . SVG Version: 6.00 Build 0)  -->
<svg version="1.1" id="HomCom" xmlns="http://www.w3.org/2000/svg" xmlns:xlink="http://www.w3.org/1999/xlink" x="0px" y="0px"
	 viewBox="0 0 237 46" style="enable-background:new 0 0 237 46;" xml:space="preserve">
<style type="text/css">
	.st0{fill:#FFFFFF;}
	.st1{opacity:0.1;fill:url(#Left_Inner_shadow_1_);}
	.st2{opacity:0.1;fill:url(#Right_stem_2_);}
	.st3{fill:none;stroke:#FFFFFF;stroke-width:2;stroke-miterlimit:10;}
</style>
<g id="HomeCom">
	<g id="Logo_2_">
		<path id="Left_stem_2_" class="st0" d="M10.9,0H1.6C0.7,0,0,0.9,0,1.9V5C0,13,3.7,19.9,9.2,23.5v18H3.3V21.4
			c0-1.1-0.7-1.9-1.6-1.9c-0.9,0-1.6,0.9-1.6,1.9v22.1c0,1.1,0.7,1.9,1.6,1.9h9.2c0.9,0,1.6-0.9,1.6-1.9V25.2v-4.1c0,0,0,0-0.1,0
			c0,0,0,0,0.1,0V9v-7C12.5,0.9,11.8,0,10.9,0z M3.3,5V3.9h5.9V9v9.9C9.3,19,9.4,19,9.4,19.1C9.4,19,9.3,19,9.2,18.9v0
			C5.6,15.7,3.3,10.7,3.3,5z"/>
		
			<linearGradient id="Left_Inner_shadow_1_" gradientUnits="userSpaceOnUse" x1="103.3201" y1="27.2596" x2="103.3201" y2="14.8006" gradientTransform="matrix(-1 0 0 -1 114.1882 36)">
			<stop  offset="0" style="stop-color:#FFFFFF"/>
			<stop  offset="0.9987" style="stop-color:#272525"/>
		</linearGradient>
		<path id="Left_Inner_shadow_2_" class="st1" d="M9.2,18.9C9.3,19,9.4,19,9.4,19.1c0.4,0.3,0.8,0.6,1.2,0.9
			c0.1,0.1,0.2,0.1,0.3,0.2c0.5,0.3,1,0.6,1.6,0.9c0,0,0,0,0.1,0V9H9.2V18.9z"/>
		<path id="Right_stem_4_" class="st0" d="M36,5V1.9C36,0.9,35.3,0,34.4,0h-9.2c-0.9,0-1.6,0.9-1.6,1.9v7v12.1c0,0,0,0,0,0
			c0,0,0,0,0,0v4.1v18.2c0,1.1,0.7,1.9,1.6,1.9h9.2c0.9,0,1.6-0.9,1.6-1.9V21.7c0-1.1-0.7-1.9-1.6-1.9c-0.9,0-1.6,0.9-1.6,1.9v19.8
			h-5.9v-18C32.3,19.8,36,12.9,36,5z M26.9,18.9C26.9,18.9,26.9,18.9,26.9,18.9l0-9.9V3.9h5.9V5C32.7,10.7,30.4,15.7,26.9,18.9
			L26.9,18.9L26.9,18.9C26.9,18.9,26.9,18.9,26.9,18.9z"/>
		
			<linearGradient id="Right_stem_2_" gradientUnits="userSpaceOnUse" x1="88.9564" y1="26.7615" x2="88.9564" y2="15.4227" gradientTransform="matrix(-1 0 0 -1 114.1882 36)">
			<stop  offset="0" style="stop-color:#FFFFFF"/>
			<stop  offset="0.9987" style="stop-color:#272525"/>
		</linearGradient>
		<path id="Right_stem_1_" class="st2" d="M25.2,20.2c0.1-0.1,0.2-0.1,0.3-0.2c0.5-0.3,1-0.7,1.4-1.1c0,0,0,0,0,0V9h-3.3v12.1
			c0,0,0,0,0,0C24.2,20.8,24.7,20.5,25.2,20.2z"/>
	</g>
	<g id="circle">
		<circle class="st3" cx="18" cy="23.2" r="3.1"/>
	</g>
</g>
<g id="HomeCom_1_">
	<g>
		<g>
			<path class="st0" d="M49,21.8h-5.6v-2h13.6v2h-5.6v15.4H49V21.8z"/>
			<path class="st0" d="M61.7,18.9v7.5c0.6-1.1,1.8-2.2,4-2.2c2,0,4.3,1.1,4.3,4.9v8.1h-2.2v-7.7c0-2.2-0.9-3.4-2.8-3.4
				c-2.3,0-3.3,1.5-3.3,4.1v6.9h-2.2V18.9H61.7z"/>
			<path class="st0" d="M75.5,31.3c0,2.6,1.3,4.4,3.5,4.4c2,0,2.7-1,3.1-2h2.2c-0.5,1.6-1.9,3.8-5.3,3.8c-4,0-5.6-3.2-5.6-6.5
				c0-3.8,1.9-6.8,5.7-6.8c4.1,0,5.4,3.3,5.4,6c0,0.4,0,0.7,0,1.1H75.5z M82.2,29.8c0-2.1-1.1-3.8-3.2-3.8c-2.2,0-3.2,1.6-3.4,3.8
				H82.2z"/>
			<path class="st0" d="M87.7,28c0-1.8,0-2.8,0-3.4h2.1c0,0.4,0.1,1.3,0.1,2.6c0.7-1.7,2.2-2.8,4.3-2.9v2.2
				c-2.6,0.1-4.3,1.4-4.3,4.6v6.1h-2.2V28z"/>
			<path class="st0" d="M97.1,27.8c0-1.1,0-2.2,0-3.3h2.1c0,0.4,0.1,1.3,0.1,1.9c0.6-1.1,1.7-2.2,3.7-2.2c1.8,0,3,0.9,3.5,2.3
				c0.7-1.2,1.9-2.3,4-2.3c2.1,0,4,1.2,4,4.6v8.3h-2.2v-8.1c0-1.5-0.5-3-2.5-3c-2.1,0-3,1.6-3,3.8v7.3h-2.1v-8
				c0-1.6-0.5-3.1-2.4-3.1c-2,0-3,1.6-3,4.1v7h-2.2V27.8z"/>
			<path class="st0" d="M129.6,30.9c0,3.6-2.1,6.7-6,6.7c-3.6,0-5.8-2.8-5.8-6.6c0-3.7,2.2-6.7,6-6.7
				C127.3,24.3,129.6,26.9,129.6,30.9z M120.1,30.9c0,2.8,1.4,4.8,3.7,4.8c2.3,0,3.6-1.9,3.6-4.8c0-2.9-1.3-4.8-3.7-4.8
				C121.3,26.1,120.1,28,120.1,30.9z"/>
			<path class="st0" d="M134.5,32.4c0.5,2.1,1.9,3.2,4.4,3.2c2.7,0,3.8-1.3,3.8-2.9c0-1.7-0.9-2.7-4.3-3.6c-4.1-1-5.5-2.4-5.5-4.8
				c0-2.6,1.9-4.7,5.8-4.7c4.1,0,5.8,2.4,6.1,4.7h-2.3c-0.3-1.5-1.3-2.8-3.8-2.8c-2.1,0-3.3,1-3.3,2.6c0,1.6,1,2.3,4,3
				c5,1.2,5.8,3.1,5.8,5.4c0,2.8-2.1,5-6.3,5c-4.4,0-6.3-2.4-6.6-5.1H134.5z"/>
			<path class="st0" d="M150,31.3c0,2.6,1.3,4.4,3.5,4.4c2,0,2.7-1,3.1-2h2.2c-0.5,1.6-1.9,3.8-5.3,3.8c-4,0-5.6-3.2-5.6-6.5
				c0-3.8,1.9-6.8,5.7-6.8c4.1,0,5.4,3.3,5.4,6c0,0.4,0,0.7,0,1.1H150z M156.7,29.8c0-2.1-1.1-3.8-3.2-3.8c-2.2,0-3.2,1.6-3.4,3.8
				H156.7z"/>
			<path class="st0" d="M172.2,33.4c-0.5,2.2-2,4.2-5.2,4.2c-3.5,0-5.6-2.5-5.6-6.6c0-3.6,2-6.7,5.8-6.7c3.7,0,4.9,2.6,5.1,4.2h-2.2
				c-0.3-1.3-1.1-2.4-3-2.4c-2.2,0-3.5,1.9-3.5,4.8c0,2.9,1.2,4.8,3.4,4.8c1.6,0,2.5-0.8,3-2.4H172.2z"/>
			<path class="st0" d="M185.6,33.5c0,1.2,0,2.9,0,3.7h-2.1c-0.1-0.3-0.1-1.1-0.1-1.9c-0.6,1.4-1.8,2.2-3.8,2.2
				c-2.1,0-4.2-1.1-4.2-4.6v-8.3h2.2v7.9c0,1.7,0.5,3.2,2.6,3.2c2.3,0,3.2-1.3,3.2-4.5v-6.6h2.2V33.5z"/>
			<path class="st0" d="M189.8,28c0-1.8,0-2.8,0-3.4h2.1c0,0.4,0.1,1.3,0.1,2.6c0.7-1.7,2.2-2.8,4.3-2.9v2.2
				c-2.6,0.1-4.3,1.4-4.3,4.6v6.1h-2.2V28z"/>
			<path class="st0" d="M199.2,18.9h2.2v2.7h-2.2V18.9z M199.2,24.6h2.2v12.7h-2.2V24.6z"/>
			<path class="st0" d="M204,24.6h2.2v-3.7h2.2v3.7h2.8v1.8h-2.8v7.4c0,1.2,0.3,1.9,1.4,1.9c0.3,0,0.8,0,1.1-0.1v1.6
				c-0.5,0.2-1.3,0.2-1.9,0.2c-2,0-2.8-1-2.8-3.1v-7.9H204V24.6z"/>
			<path class="st0" d="M214.9,24.6c2,6.1,3.2,9.4,3.5,10.7h0c0.4-1.4,1.3-4.3,3.4-10.7h2.2l-4.6,13.2c-1.3,3.7-2.2,4.6-4.8,4.6
				c-0.4,0-0.9,0-1.4-0.1v-1.9c0.3,0,0.7,0.1,1,0.1c1.6,0,2.2-0.7,3-2.8l-4.7-13.2H214.9z"/>
		</g>
	</g>
	<g id="Trademark">
		<g id="Trademark_1_">
			<path class="st0" d="M226.7,19h-1.6v-0.6h3.8V19h-1.6v4.3h-0.7V19z"/>
			<path class="st0" d="M233.9,21.3c0-0.9,0-1.8,0-2.3h0c-0.2,0.8-1,2.9-1.6,4.4h-0.6c-0.4-1.2-1.2-3.6-1.5-4.4h0
				c0,0.6,0.1,1.6,0.1,2.5v1.9h-0.6v-4.9h1c0.6,1.5,1.2,3.5,1.4,4.1h0c0.1-0.5,0.9-2.6,1.5-4.1h0.9v4.9h-0.6V21.3z"/>
		</g>
	</g>
</g>
</svg>
