<svg version="1.1" id="Layer_1" xmlns="http://www.w3.org/2000/svg" x="0" y="0" viewBox="0 0 512 512" xml:space="preserve"><style>.st0{fill:#425fc6}</style><path class="st0" d="M334.8 233l-113.1-61.9c-6.5-3.6-14.2-3.4-20.6.4-6.4 3.8-10.2 10.5-10.2 17.9V312c0 7.4 3.8 14 10.1 17.8 3.3 2 7 3 10.7 3 3.4 0 6.7-.8 9.8-2.5l113.1-60.8c6.7-3.6 10.9-10.6 10.9-18.2.1-7.6-4-14.6-10.7-18.3zm-113.9 63.6v-91.7l84.5 46.3-84.5 45.4z"/><path class="st0" d="M508.2 153.5v-.2c-.4-4.1-4.8-40.8-22.6-59.4-20.6-22-43.9-24.6-55.1-25.9-.9-.1-1.8-.2-2.5-.3l-.9-.1c-67.8-4.9-170-5.6-171-5.6h-.2c-1 0-103.2.7-171.5 5.6l-.9.1c-.7.1-1.5.2-2.4.3-11.1 1.3-34.2 3.9-54.9 26.7C9.2 113.1 4.3 149 3.8 153l-.1.5c-.1 1.7-3.7 42.6-3.7 83.6v38.3c0 41 3.6 81.8 3.8 83.5v.3c.4 4.1 4.7 40 22.5 58.7 19.4 21.2 43.9 24 57 25.5 2.1.2 3.9.4 5.1.7l1.2.2c39.1 3.7 161.6 5.6 166.8 5.6h.4c1 0 103.2-.7 170.9-5.6l.9-.1c.9-.1 1.8-.2 2.9-.3 11-1.2 34-3.6 54.4-26 17-18.4 21.9-54.3 22.4-58.3l.1-.5c.2-1.7 3.8-42.5 3.8-83.5v-38.3c-.2-41.2-3.8-82.1-4-83.8zM482 275.4c0 37.9-3.3 77-3.6 80.6-1.3 9.9-6.4 32.6-14.7 41.6-12.8 14-25.8 15.4-35.4 16.4-1.2.1-2.2.2-3.2.4-65.5 4.7-163.8 5.5-168.4 5.5-5.1-.1-125.8-1.9-163.7-5.4-1.9-.3-4-.6-6.3-.8-11.2-1.3-26.6-3-38.4-16l-.3-.3c-8.1-8.5-13.2-29.7-14.4-41.1-.2-2.7-3.6-42.2-3.6-80.7v-38.3c0-37.9 3.3-76.9 3.6-80.6 1.5-11.6 6.8-33 14.7-41.6C61.4 100.6 75.3 99 84.5 98c.9-.1 1.7-.2 2.4-.3 66.4-4.8 165.5-5.5 169-5.5 3.6 0 102.6.7 168.4 5.5.8.1 1.7.2 2.6.3 9.4 1.1 23.7 2.7 36.7 16.6l.1.1c8.1 8.5 13.2 30.1 14.4 41.8.2 2.6 3.6 42.2 3.6 80.7v38.2z"/></svg>